<?xml version="1.0" encoding="utf-8"?>
<!-- Generator: Adobe Illustrator 21.1.0, SVG Export Plug-In . SVG Version: 6.00 Build 0)  -->
<svg version="1.1" id="Layer_1" xmlns="http://www.w3.org/2000/svg" xmlns:xlink="http://www.w3.org/1999/xlink" x="0px" y="0px"
	 viewBox="0 0 48.8 76.1" style="enable-background:new 0 0 48.8 76.1;" xml:space="preserve">
<path d="M47.3,45.5c0-0.7-0.6-1.3-1.3-1.3c0,0,0,0-0.1,0v0c-3.1,0.1-5.4,1.5-6.7,4c-0.8,1.5-1.3,3.4-1.6,5.2
	c-0.8-5.8-2.1-10.8-3.7-13.8c4.7-3.1,7.9-8.4,7.9-14.5c0-0.7,0-1.5-0.1-2.2L41.4,1.9l-5.1,10.7c-3.1-2.9-7.2-4.7-11.8-4.7
	c-4.6,0-8.8,1.8-11.9,4.8L7.5,1.9l-0.2,22l0.1,0c0,0.4-0.1,0.9-0.1,1.4c0,6.1,3.1,11.4,7.9,14.5c-1.6,3.2-3.1,8.4-3.8,14.5
	c-0.9,7-0.5,13.3,0.7,16.5c-0.7,0.2-1.2,0.8-1.2,1.6c0,0.9,0.7,1.7,1.7,1.7h11.5v-2.5c0-0.2,0.2-0.4,0.4-0.4c0.2,0,0.4,0.2,0.4,0.4
	v2.5h11.5c0.9,0,1.7-0.7,1.7-1.7c0-0.7-0.5-1.4-1.2-1.6c0.7-1.8,1.1-4.5,1.1-7.8c1-2,1.4-4.5,1.7-6.9c0.9-5.5,1.7-8.9,6.2-9.1l0,0
	C46.7,46.8,47.3,46.3,47.3,45.5z M31.6,22.1C31.6,22.1,31.6,22.1,31.6,22.1c0,1.4,0.3,2.5,0.7,2.5c0.4,0,0.7-1.1,0.7-2.4
	c0-0.2,0-0.4,0-0.6l4.5-2c0.9,2-0.9,4.8-4,6.2c-3.1,1.4-6.4,0.8-7.3-1.2L31.6,22.1z M11.6,19.5l4.3,1.9c0,0.2,0,0.5,0,0.7
	c0,1.3,0.3,2.4,0.7,2.4c0.4,0,0.7-1.1,0.7-2.4c0,0,0-0.1,0-0.1l5.6,2.5c-0.9,2-4.2,2.6-7.3,1.2C12.5,24.3,10.7,21.6,11.6,19.5z"/>
</svg>
